# AST/ASF file generated using VICON BodyLanguage
# -----------------------------------------------
:version 1.10
:name VICON
:units
  mass 1.0
  length 0.45
  angle deg
:documentation
   .ast/.asf automatically generated from VICON data using
   VICON BodyBuilder and BodyLanguage model FoxedUp or BRILLIANT.MOD
:root
   order TX TY TZ RX RY RZ
   axis XYZ
   position 0 0 0  
   orientation 0 0 0 
:bonedata
  begin
     id 1 
     name lhipjoint
     direction 0.558404 -0.748506 0.357664 
     length 2.4234 
     axis 0 0 0  XYZ
  end
  begin
     id 2 
     name lfemur
     direction 0.34202 -0.939693 0  
     length 7.14567  
     axis 0 0 20  XYZ
    dof rx ry rz
    limits (-160.0 20.0)
           (-70.0 70.0)
           (-60.0 70.0)
  end
  begin
     id 3 
     name ltibia
     direction 0.34202 -0.939693 0   
     length 8.13956   
     axis 0 0 20   XYZ
    dof rx
    limits (-10.0 170.0)
  end
  begin
     id 4 
     name lfoot
     direction 0.0791314 -0.217412 0.972867   
     length 2.00134   
     axis -90 7.62852e-016 20   XYZ
    dof rx rz
    limits (-45.0 90.0)
           (-70.0 20.0)
  end
  begin
     id 5 
     name ltoes
     direction 1.53547e-011 -4.21922e-011 1   
     length 1.00735   
     axis -90 7.62852e-016 20   XYZ
    dof rx
    limits (-90.0 20.0)
  end
  begin
     id 6 
     name rhipjoint
     direction -0.496392 -0.78327 0.374276   
     length 2.31584  
     axis 0 0 0  XYZ 
  end
  begin
     id 7 
     name rfemur
     direction -0.34202 -0.939693 0   
     length 7.47417   
     axis 0 0 -20   XYZ
    dof rx ry rz
    limits (-160.0 20.0)
           (-70.0 70.0)
           (-70.0 60.0)
  end
  begin
     id 8 
     name rtibia
     direction -0.34202 -0.939693 0   
     length 7.69071   
     axis 0 0 -20   XYZ
    dof rx
    limits (-10.0 170.0)
 end
 begin
     id 9 
     name rfoot
     direction -0.103069 -0.28318 0.953512   
     length 2.16135  
     axis -90 -7.62852e-016 -20   XYZ
    dof rx rz
    limits (-45.0 90.0)
           (-20.0 70.0)
  end
  begin
     id 10 
     name rtoes
     direction -1.53581e-011 -4.21904e-011 1   
     length 1.07867   
     axis -90 -7.62852e-016 -20   XYZ
    dof rx
    limits (-90.0 20.0)
  end
  begin
     id 11 
     name lowerback
     direction -0.0258961 0.994776 -0.0987407   
     length 2.19412   
     axis 0 0 0   XYZ
    dof rx ry rz
    limits (-20.0 45.0)
           (-30.0 30.0)
           (-30.0 30.0)
  end
  begin
     id 12 
     name upperback
     direction 0.0402454 0.999185 0.00320666   
     length 2.18445   
     axis 0 0 0   XYZ
    dof rx ry rz
    limits (-20.0 45.0)
           (-30.0 30.0)
           (-30.0 30.0)
  end
  begin
     id 13 
     name thorax
     direction 0.0519376 0.997415 0.0496558   
     length 2.21487   
     axis 0 0 0   XYZ
    dof rx ry rz
    limits (-20.0 45.0)
           (-30.0 30.0)
           (-30.0 30.0)
  end
  begin
     id 14 
     name lowerneck
     direction -0.0921276 0.983211 0.157506   
     length 1.61201   
     axis 0 0 0   XYZ
    dof rx ry rz
    limits (-20.0 45.0)
           (-30.0 30.0)
           (-30.0 30.0)
  end
  begin
     id 15 
     name upperneck
     direction 0.0820814 0.98162 -0.172292   
     length 1.65275   
     axis 0 0 0   XYZ
    dof rx ry rz
    limits (-20.0 45.0)
           (-30.0 30.0)
           (-30.0 30.0)
  end
  begin
     id 16
     name head
     direction 0.0336554 0.996413 -0.0776455  
     length 1.66415  
     axis 0 0 0   XYZ
    dof rx ry rz
    limits (-20.0 45.0)
           (-30.0 30.0)
           (-30.0 30.0)
  end
  begin
     id 17 
     name lclavicle
     direction 0.94696 0.284418 -0.149576  
     length 3.41447  
     axis 0 0 0   XYZ
    dof ry rz
    limits (-20.0 10.0)
           (0.0 20.0)
  end
  begin
     id 18 
     name lhumerus
     direction 1 -0.000130264 -9.81312e-005   
     length 5.19964   
     axis 180 -30 -90   XYZ
    dof rx ry rz
    limits (-60.0 90.0)
           (-90.0 90.0)
           (-90.0 90.0)
  end
  begin
     id 19
     name lradius
     direction 1 -4.48961e-011 1.43854e-026   
     length 3.32189   
     axis 180 -30 -90   XYZ
    dof rx
    limits (-10.0 170.0)
  end
  begin
     id 20
     name lwrist
     direction 1 -4.48958e-011 3.1502e-026   
     length 1.66095   
     axis -1.97692e-014 90 90   XYZ
    dof ry
    limits (-180.0 0.0)
 end
  begin
     id 21 
     name lhand
     direction 1 -4.48927e-011 6.3004e-026   
     length 0.645616   
     axis -4.02019e-014 90 90   XYZ
    dof rx rz
    limits (-90.0 90.0)
           (-45.0 45.0)
  end
  begin
     id 22 
     name lfingers
     direction 1 -4.4904e-011 1.26008e-025   
     length 0.520512   
     axis -8.04039e-014 90 90   XYZ
    dof rx
    limits (0.0 90.0)
  end
  begin
     id 23
     name lthumb
     direction 0.707107 -6.34947e-011 0.707107   
     length 0.747354   
     axis -90 45 2.85299e-015   XYZ
    dof rx rz
    limits (-45.0 45.0)
           (-45.0 45.0)
  end
  begin
     id 24 
     name rclavicle
     direction -0.909391 0.383475 -0.161107   
     length 3.25176  
     axis 0 0 0   XYZ 
    dof ry rz
    limits (-10.0 20.0)
           (-20.0 0.0)
  end
  begin
     id 25 
     name rhumerus
     direction -1 -4.48965e-011 -1.81384e-027  
     length 5.6595   
     axis 180 30 90   XYZ
    dof rx ry rz
    limits (-90.0 60.0)
           (-90.0 90.0)
           (-90.0 90.0)
  end
  begin
     id 26 
     name rradius
     direction -1 -4.48996e-011 -8.09397e-027   
     length 3.37604   
     axis 180 30 90   XYZ
    dof rx
    limits (-10.0 170.0)
  end
  begin
     id 27 
     name rwrist
     direction -1 -4.48927e-011 -1.56669e-026   
     length 1.68802   
     axis 1.21142e-014 -90 -90   XYZ
    dof ry
    limits (-180.0 0.0)
  end
  begin
     id 28
     name rhand
     direction -1 -4.48912e-011 -3.13339e-026   
     length 0.824702   
     axis 1.99937e-014 -90 -90   XYZ
    dof rx rz
    limits (-90.0 90.0)
           (-45.0 45.0)
  end
  begin
     id 29
     name rfingers
     direction -1 -4.49011e-011 -6.26677e-026   
     length 0.664896   
     axis 3.99874e-014 -90 -90   XYZ
    dof rx
    limits (0.0 90.0)
  end
  begin
     id 30
     name rthumb
     direction -0.707107 -6.34931e-011 0.707107   
     length 0.954662   
     axis -90 -45 -2.85299e-015   XYZ
    dof rx rz
    limits (-45.0 45.0)
           (-45.0 45.0)
  end
:hierarchy
  begin
    root lhipjoint rhipjoint lowerback
    lhipjoint lfemur
    lfemur ltibia
    ltibia lfoot
    lfoot ltoes
    rhipjoint rfemur
    rfemur rtibia
    rtibia rfoot
    rfoot rtoes
    lowerback upperback
    upperback thorax
    thorax lowerneck lclavicle rclavicle
    lowerneck upperneck
    upperneck head
    lclavicle lhumerus
    lhumerus lradius
    lradius lwrist
    lwrist lhand lthumb
    lhand lfingers
    rclavicle rhumerus
    rhumerus rradius
    rradius rwrist
    rwrist rhand rthumb
    rhand rfingers
  end

#!OML:ASF F:\VICON\USERDATA\INSTALL\rory3\rory3.ASF
:FULLY-SPECIFIED
:DEGREES
16
root 11.8425 17.8179 -38.4981 7.03911 -18.515 -0.535641
lowerback 2.13791 -1.4223 -5.09987
upperback -4.00204 -1.99819 3.66571
thorax -5.07115 -0.716622 6.84767
lowerneck -5.36383 -10.4962 -19.5476
upperneck 13.3964 -14.166 12.6858
head 7.30096 -7.07388 5.92601
rclavicle -1.00635e-014 -2.38542e-014
rhumerus -36.6169 -14.289 -74.5473
rradius 29.5794
rwrist -11.7904
rhand -13.4265 17.8199
rfingers 7.12502
rthumb 12.6821 -11.775
lclavicle -1.00635e-014 -2.38542e-014
lhumerus -33.0299 10.2645 88.6533
lradius 25.0023
lwrist -10.2662
lhand -3.42376 32.4389
lfingers 7.12502
lthumb 22.3072 61.1712
rfemur -17.3813 3.5764 24.0617
rtibia 39.7708
rfoot -25.6902 -12.3981
rtoes 19.583
lfemur -16.3745 -4.71892 -20.0582
ltibia 38.091
lfoot -24.4587 11.1056
ltoes 4.36402
17
root 11.8429 17.8178 -38.4932 6.98043 -18.5437 -0.53048
lowerback 2.08885 -1.41505 -5.04585
upperback -3.93208 -1.98443 3.64373
thorax -4.97306 -0.717931 6.78794
lowerneck -5.42601 -10.5001 -19.5421
upperneck 13.3658 -14.1679 12.7501
head 7.30666 -7.06763 5.94371
rclavicle 3.51243e-014 1.59028e-015
rhumerus -36.5302 -14.2205 -74.6471
rradius 29.5812
rwrist -11.8939
rhand -13.5152 17.797
rfingers 7.12502
rthumb 12.5966 -11.8032
lclavicle 3.51243e-014 1.59028e-015
lhumerus -32.9367 10.2271 88.6621
lradius 24.9801
lwrist -10.1441
lhand -3.54487 32.2272
lfingers 7.12502
lthumb 22.191 60.9734
rfemur -17.3061 3.49745 24.039
rtibia 39.7482
rfoot -25.6972 -12.2513
rtoes 20.0534
lfemur -16.2758 -4.75625 -20.0942
ltibia 38.0848
lfoot -23.8334 11.6644
ltoes 0.0940804
18
root 11.8419 17.8168 -38.4915 6.93903 -18.602 -0.5436
lowerback 2.16384 -1.38591 -5.06672
upperback -3.9432 -1.94838 3.6656
thorax -5.03227 -0.696014 6.82488
lowerneck -5.32084 -10.5105 -19.4825
upperneck 13.2323 -14.1839 12.6762
head 7.23772 -7.07948 5.91233
rclavicle -9.79946e-015 -1.35174e-014
rhumerus -36.5935 -14.0532 -74.688
rradius 29.6393
rwrist -12.0692
rhand -13.62 17.7502
rfingers 7.12502
rthumb 12.4955 -11.8562
lclavicle -9.79946e-015 -1.35174e-014
lhumerus -32.9759 10.2546 88.6835
lradius 24.9797
lwrist -10.0883
lhand -3.71139 31.9392
lfingers 7.12502
lthumb 22.0311 60.7044
rfemur -17.2414 3.48731 24.0453
rtibia 39.7406
rfoot -25.6647 -12.1369
rtoes 20.1122
lfemur -16.207 -4.75282 -20.0977
ltibia 38.0685
lfoot -23.1871 12.292
ltoes -4.91084
19
root 11.8385 17.8181 -38.4939 6.95696 -18.6644 -0.550092
lowerback 2.21154 -1.34382 -5.12103
upperback -3.96824 -1.89645 3.66641
thorax -5.09298 -0.66483 6.85698
lowerneck -5.30629 -10.5471 -19.2668
upperneck 13.2076 -14.2326 12.5209
head 7.20694 -7.10205 5.82117
rclavicle -3.78312e-014 -2.46493e-014
rhumerus -36.7304 -13.9937 -74.6863
rradius 29.7546
rwrist -12.1794
rhand -13.5184 17.747
rfingers 7.12502
rthumb 12.5934 -11.8534
lclavicle -3.78312e-014 -2.46493e-014
lhumerus -33.0129 10.0661 88.7459
lradius 25.0049
lwrist -9.9308
lhand -3.78994 31.9499
lfingers 7.12502
lthumb 21.9557 60.7239
rfemur -17.2383 3.58287 24.0504
rtibia 39.7433
rfoot -25.6443 -12.0866
rtoes 19.9811
lfemur -16.2254 -4.65995 -20.076
ltibia 38.052
lfoot -24.0082 10.9312
ltoes 5.46644
20
root 11.8356 17.8218 -38.4964 7.06211 -18.6743 -0.575859
lowerback 2.17238 -1.34255 -5.13208
upperback -4.02334 -1.89296 3.69508
thorax -5.12848 -0.659321 6.89418
lowerneck -5.20188 -10.5241 -19.1999
upperneck 13.2154 -14.219 12.462
head 7.17922 -7.10033 5.79858
rclavicle -2.08103e-015 3.10104e-014
rhumerus -36.8236 -13.9279 -74.6414
rradius 29.8162
rwrist -12.2211
rhand -13.307 17.8236
rfingers 7.12502
rthumb 12.7972 -11.7641
lclavicle -2.08103e-015 3.10104e-014
lhumerus -33.0897 9.98012 88.802
lradius 25.3449
lwrist -9.21749
lhand -3.34574 33.0484
lfingers 7.12502
lthumb 22.3821 61.7718
rfemur -17.3538 3.65978 24.0771
rtibia 39.7594
rfoot -25.7195 -12.1022
rtoes 20.3771
lfemur -16.341 -4.55887 -20.0155
ltibia 38.0406
lfoot -23.1874 12.3035
ltoes -5.97386
21
root 11.8358 17.8232 -38.4966 7.12428 -18.6536 -0.581207
lowerback 2.16414 -1.35547 -5.12429
upperback -4.07485 -1.90887 3.72129
thorax -5.17533 -0.663932 6.92009
lowerneck -4.93845 -10.4712 -19.2875
upperneck 13.1437 -14.1897 12.5179
head 7.11632 -7.09722 5.84805
rclavicle 1.01504e-014 1.82882e-014
rhumerus -36.864 -13.8425 -74.6211
rradius 29.8296
rwrist -12.2564
rhand -13.1982 17.8396
rfingers 7.12502
rthumb 12.9021 -11.7416
lclavicle 1.01504e-014 1.82882e-014
lhumerus -33.2078 10.0644 88.7837
lradius 25.0718
lwrist -10.0677
lhand -3.77043 31.5797
lfingers 7.12502
lthumb 21.9744 60.3515
rfemur -17.4711 3.58417 24.0909
rtibia 39.7869
rfoot -25.7319 -12.2341
rtoes 20.1624
lfemur -16.4123 -4.58058 -20.0021
ltibia 38.0361
lfoot -23.7655 11.6877
ltoes -0.865393
22
root 11.8365 17.822 -38.5003 7.12161 -18.5664 -0.566352
lowerback 2.19876 -1.36455 -5.09171
upperback -4.0615 -1.92192 3.69098
thorax -5.18044 -0.672518 6.87045
lowerneck -4.88687 -10.4789 -19.2773
upperneck 13.1319 -14.2187 12.567
head 7.11128 -7.10974 5.86167
rclavicle 4.60031e-014 -4.29375e-014
rhumerus -36.8484 -13.8891 -74.6624
rradius 29.8465
rwrist -12.2291
rhand -13.1475 17.8584
rfingers 7.12502
rthumb 12.951 -11.7197
lclavicle 4.60031e-014 -4.29375e-014
lhumerus -33.1341 9.96497 88.7855
lradius 24.9674
lwrist -10.1947
lhand -4.00793 31.2618
lfingers 7.12502
lthumb 21.7463 60.0602
rfemur -17.5039 3.48016 24.1011
rtibia 39.8075
rfoot -25.7437 -12.2482
rtoes 20.3587
lfemur -16.4393 -4.63689 -19.9994
ltibia 38.0427
lfoot -24.296 10.9789
ltoes 4.57762
23
root 11.8333 17.8246 -38.5079 7.13765 -18.467 -0.582542
lowerback 2.21593 -1.38443 -5.0539
upperback -4.0317 -1.94801 3.67114
thorax -5.15598 -0.689192 6.82851
lowerneck -4.892 -10.4916 -19.2866
upperneck 13.0661 -14.2405 12.6429
head 7.10115 -7.11514 5.88534
rclavicle 6.7975e-015 3.81667e-014
rhumerus -36.8089 -13.8707 -74.7575
rradius 29.8961
rwrist -12.2035
rhand -13.3109 17.8008
rfingers 7.12502
rthumb 12.7935 -11.7872
lclavicle 6.7975e-015 3.81667e-014
lhumerus -32.9712 9.74884 88.8033
lradius 24.8931
lwrist -9.95516
lhand -4.10552 31.4651
lfingers 7.12502
lthumb 21.6526 60.2744
rfemur -17.4972 3.55052 24.1379
rtibia 39.8152
rfoot -25.8975 -12.026
rtoes 21.9472
lfemur -16.4762 -4.55973 -19.9308
ltibia 38.0511
lfoot -23.7512 11.4704
ltoes -0.700859
24
root 11.8301 17.826 -38.5112 7.12397 -18.4149 -0.563441
lowerback 2.33586 -1.42311 -5.12506
upperback -4.09285 -2.00614 3.72849
thorax -5.27722 -0.707696 6.94126
lowerneck -4.79047 -10.4729 -19.3941
upperneck 12.9346 -14.213 12.6589
head 7.04624 -7.1086 5.91576
rclavicle 4.3596e-014 -1.90833e-014
rhumerus -36.8605 -13.6262 -74.7648
rradius 29.9291
rwrist -12.2771
rhand -13.5657 17.6945
rfingers 7.12502
rthumb 12.5479 -11.9087
lclavicle 4.3596e-014 -1.90833e-014
lhumerus -33.0179 9.67151 88.8791
lradius 24.8875
lwrist -9.67991
lhand -4.09531 31.6537
lfingers 7.12502
lthumb 21.6624 60.4618
rfemur -17.4607 3.58571 24.1174
rtibia 39.8109
rfoot -26.0059 -11.8371
rtoes 22.6262
lfemur -16.4682 -4.5324 -19.9261
ltibia 38.0557
lfoot -23.1893 11.9959
ltoes -5.80815
25
root 11.8292 17.8219 -38.5093 7.07941 -18.4593 -0.520661
lowerback 2.46162 -1.44342 -5.23355
upperback -4.15092 -2.04156 3.79598
thorax -5.40095 -0.712802 7.08572
lowerneck -4.87042 -10.4593 -19.459
upperneck 12.9442 -14.1621 12.594
head 7.05484 -7.08772 5.9066
rclavicle -1.90833e-014 -1.90833e-014
rhumerus -36.9038 -13.3977 -74.7304
rradius 29.9462
rwrist -12.4526
rhand -13.6017 17.6383
rfingers 7.12502
rthumb 12.5132 -11.967
lclavicle -1.90833e-014 -1.90833e-014
lhumerus -33.1395 9.78262 88.9292
lradius 24.839
lwrist -9.63634
lhand -4.36163 31.2534
lfingers 7.12502
lthumb 21.4067 60.0908
rfemur -17.4221 3.52401 24.0745
rtibia 39.7993
rfoot -25.8685 -11.8817
rtoes 21.6783
lfemur -16.4242 -4.60252 -19.9829
ltibia 38.0552
lfoot -24.0133 10.6437
ltoes 5.31144
